<?xml version="1.0" encoding="utf-8"?>
<!-- Generator: Adobe Illustrator 22.1.0, SVG Export Plug-In . SVG Version: 6.00 Build 0)  -->
<svg version="1.1" id="レイヤー_1" xmlns="http://www.w3.org/2000/svg" xmlns:xlink="http://www.w3.org/1999/xlink" x="0px"
	 y="0px" viewBox="0 0 150 150" style="enable-background:new 0 0 150 150;" xml:space="preserve">
<style type="text/css">
	.st0{fill:#F4E827;}
	.st1{fill:#3A3A3A;}
</style>
<g>
	<g>
		<path class="st0" d="M31.6,147.5c-16.1,0-29.1-13.1-29.1-29.1V31.6c0-16.1,13.1-29.1,29.1-29.1h86.8c16.1,0,29.1,13.1,29.1,29.1
			v86.8c0,16.1-13.1,29.1-29.1,29.1H31.6z"/>
		<path class="st1" d="M118.4,5C133.1,5,145,16.9,145,31.6v86.8c0,14.7-11.9,26.6-26.6,26.6H31.6C16.9,145,5,133.1,5,118.4V31.6
			C5,16.9,16.9,5,31.6,5H118.4 M118.4,0H31.6C14.2,0,0,14.2,0,31.6v86.8C0,135.8,14.2,150,31.6,150h86.8c17.5,0,31.6-14.2,31.6-31.6
			V31.6C150,14.2,135.8,0,118.4,0L118.4,0z"/>
	</g>
	<polygon class="st1" points="42.5,85.7 53.3,96.4 76.4,73.3 99.4,96.4 110.2,85.7 76.4,51.9 	"/>
</g>
<g>
</g>
<g>
</g>
<g>
</g>
<g>
</g>
<g>
</g>
<g>
</g>
<g>
</g>
<g>
</g>
<g>
</g>
<g>
</g>
<g>
</g>
<g>
</g>
<g>
</g>
<g>
</g>
<g>
</g>
</svg>
