<?xml version="1.0" encoding="utf-8"?>
<!-- Generator: Adobe Illustrator 22.1.0, SVG Export Plug-In . SVG Version: 6.00 Build 0)  -->
<svg version="1.1" id="レイヤー_1" xmlns="http://www.w3.org/2000/svg" xmlns:xlink="http://www.w3.org/1999/xlink" x="0px"
	 y="0px" viewBox="0 0 32 32" style="enable-background:new 0 0 32 32;" xml:space="preserve">
<style type="text/css">
	.st0{fill:#8566C2;}
</style>
<g>
	<path class="st0" d="M0,16c0,8.8,7.2,16,16,16s16-7.2,16-16S24.8,0,16,0S0,7.2,0,16z M29.5,16c0,7.5-6,13.5-13.5,13.5
		c-7.5,0-13.5-6-13.5-13.5S8.5,2.5,16,2.5C23.5,2.5,29.5,8.5,29.5,16z"/>
	<path class="st0" d="M9.3,13.3c-0.4,0.4-0.4,1,0,1.4l6,6c0.4,0.4,1,0.4,1.4,0l6-6c0.2-0.2,0.3-0.5,0.3-0.7s-0.1-0.5-0.3-0.7
		c-0.4-0.4-1-0.4-1.4,0L16,18.6l-5.3-5.3C10.3,12.9,9.7,12.9,9.3,13.3z"/>
</g>
<g>
</g>
<g>
</g>
<g>
</g>
<g>
</g>
<g>
</g>
<g>
</g>
<g>
</g>
<g>
</g>
<g>
</g>
<g>
</g>
<g>
</g>
<g>
</g>
<g>
</g>
<g>
</g>
<g>
</g>
</svg>
